<svg width="1372" height="1372" viewBox="0 0 1372 1372" fill="none" xmlns="http://www.w3.org/2000/svg">
<g clip-path="url(#clip0_351_2)">
<mask id="mask0_351_2" style="mask-type:luminance" maskUnits="userSpaceOnUse" x="0" y="0" width="1372" height="1372">
<path d="M1372 0H0V1372H1372V0Z" fill="white"/>
</mask>
<g mask="url(#mask0_351_2)">
<g filter="url(#filter0_f_351_2)">
<path d="M1113.3 361.865C1205.64 514.157 1186.4 746.153 1075.13 883.229C951.958 1045.89 748.854 1116.46 547.771 1061.07C365.38 1013.26 216.605 839.193 199.926 650.971C177.203 451.388 269.984 269.47 438.74 169.785C568.779 89.8233 769.392 80.7337 904.707 156.623C986.942 196.582 1069.65 278.559 1112.9 361.78L1113.3 361.865ZM695.389 127.082C697.104 145.304 697.104 170.814 695.389 191.609C695.904 188.307 698.948 188.307 700.964 187.063C707.309 189.336 707.309 197.182 705.508 202.498H704.222C736.807 200.227 768.234 208.329 798.333 217.419C829.717 221.45 857.072 259.18 887.942 239.157C896.513 248.761 911.525 239.672 916.024 254.592C927.905 256.864 934.243 268.741 942.352 276.33C941.317 287.219 951.436 292.279 954.994 300.34V299.053C965.37 280.317 981.793 264.153 1000.02 254.549C936.056 193.49 855.558 152.578 768.535 136.9C744.953 132.098 718.713 133.599 695.432 127.038L695.389 127.082ZM365.723 255.835L419.318 307.2C485.875 241.772 574.7 203.914 667.993 201.213C664.434 178.488 665.72 152.635 666.964 129.354C551.629 135.914 451.217 179.432 365.723 255.835ZM751.341 166.27L718.756 180.933C715.198 182.648 703.836 176.903 705.594 186.507C711.94 190.537 718.242 195.082 726.088 196.111C746.583 187.021 771.107 201.942 788.257 182.947C783.197 169.014 764.975 168.541 751.385 166.227L751.341 166.27ZM694.275 226.252C697.834 248.975 696.547 276.33 695.304 298.625C752.971 299.654 807.637 317.361 852.655 350.932C849.979 348.935 847.806 346.341 846.31 343.356C844.814 340.372 844.036 337.078 844.037 333.739H845.752C846.781 325.593 834.347 321.862 838.463 313.76C849.354 314.789 857.457 329.709 863.505 337.77C894.888 337.255 876.669 374.642 900.371 385.79C905.948 388.576 898.66 399.938 907.231 398.952C914.527 404.783 923.696 411.385 922.157 420.69C924.945 437.154 938.109 415.631 945.44 426.264C951.778 431.323 940.889 434.41 942.138 440.412C946.167 442.127 949.982 436.382 953.027 441.441C954.31 447.015 950.238 449.287 947.45 452.332C944.661 461.936 956.029 456.361 959.331 460.907C964.386 471.796 968.415 488.217 960.357 500.352C971.759 512.785 958.638 525.391 956.328 537.224C948.177 545.07 946.723 563.034 931.292 558.962C927.725 565.307 933.559 572.682 930 577.698L957.312 578.984C941.881 557.247 961.854 536.237 968.201 516.816C971.503 515.529 975.489 508.669 978.32 515.529L975.018 541.855C981.878 552.23 979.047 566.894 981.365 579.027L1051.43 577.74C1046.36 531.435 1036.76 486.932 1017.26 446.714C1012.19 448.429 1006.36 452.289 1000.79 448.987C992.938 438.612 986.642 425.706 975.745 417.131C966.661 417.131 960.314 409.842 953.027 405.254C937.074 405.769 942.908 382.531 927.469 385.79C919.326 381.759 913.321 377.643 911.011 368.082C910.49 357.191 909.72 343.558 899.13 335.497C893.297 332.196 887.728 336.526 883.7 340.041C875.12 345.616 871.562 336.012 871.819 329.152C862.213 321.862 872.332 313.717 867.277 305.142C853.556 294.251 859.989 273.757 841.465 264.668C811.366 250.262 779.725 241.086 746.282 234.312C729.346 231.31 710.61 230.754 694.189 226.165L694.275 226.252ZM902.732 226.252C899.173 227.281 900.465 233.112 901.705 235.341C913.578 236.37 913.577 256.779 927.511 247.989L924.21 233.841C920.651 224.965 908.565 229.553 902.732 226.252ZM434.753 325.85C452.975 338.498 470.681 358.435 485.602 374.942C533.622 328.123 598.449 299.567 667.993 298.538C666.706 275.815 666.706 251.248 667.993 228.481C579.97 235.341 500.78 267.154 434.753 325.85ZM1017.43 271.228L969.621 322.592L961.769 323.621C968.115 323.621 966.319 330.91 970.348 333.739C990.329 347.888 999.499 367.911 1016.39 382.831C1022.74 398.266 1039.12 408.385 1039.12 427.335C1062.7 473.383 1073.76 527.234 1076.29 580.141C1100.57 577.551 1124.98 576.448 1149.39 576.841L1147.12 574.568C1142.83 456.448 1094.51 355.906 1017.34 271.228H1017.43ZM351.575 278.688L349.302 271.828C271.699 356.292 227.88 463.05 222.049 579.67L296.224 580.699C293.437 557.118 299.782 534.394 302.569 511.113C318.519 442.513 348.102 377.558 400.752 326.451L351.575 278.688ZM669.579 322.635L667.307 324.35C604.581 327.908 552.187 355.734 503.609 393.378C522.346 405.512 537.266 424.762 554.974 441.184C585.33 412.029 625.804 394.879 668.292 393.378C666.792 372.626 665.72 344.801 669.579 322.548V322.635ZM695.389 323.664C698.948 344.93 698.177 369.969 696.676 392.264C738.908 395.565 783.97 412.757 814.325 440.284C830.275 423.82 847.982 402.124 865.686 392.264C815.869 352.819 759.96 328.251 695.476 323.664H695.389ZM416.359 340.814V345.358C358.692 411.385 326.321 490.833 320.49 579.885C344.072 580.399 370.054 578.856 392.349 580.914L390.076 577.612C394.622 507.04 420.089 442.985 467.681 392.177C448.473 376.742 430.808 359.036 416.316 340.814H416.359ZM880.826 408.556C859.39 433.081 832.504 459.149 812.224 482.729C813.51 486.031 817.283 489.589 817.797 488.304C823.371 481.444 819.084 464.294 834.261 467.809C849.182 472.869 862.341 471.368 878.764 473.383C887.857 478.442 889.14 489.333 897.505 493.877C901.064 497.908 896.214 501.724 894.204 504.768C896 506.378 897.531 508.258 898.745 510.341C903.287 506.311 909.634 500.737 918.214 503.053C926.784 503.567 929.102 515.7 936.946 517.201C940.504 521.746 934.671 526.29 931.378 528.092C933.088 536.667 923.226 539.496 926.827 547.556C931.378 548.585 935.92 546.271 937.716 543.012C954.866 530.364 941.274 513.857 938.751 498.507C931.891 484.359 917.478 481.787 906.162 471.197C906.675 466.651 909.463 461.593 913.022 459.32C912.252 439.083 891.757 425.448 880.868 408.728L880.826 408.556ZM485.688 410.829C470.253 429.822 455.333 450.788 444.185 472.997C426.477 505.582 421.461 543.57 414.173 580.785L444.185 579.756C439.125 573.925 440.154 565.607 440.154 558.018C447.014 543.612 449.758 517.544 471.539 518.788C481.915 516.515 471.024 508.412 479.386 504.125C494.821 501.852 498.85 487.403 511.971 480.543C524.404 479.257 526.891 461.806 539.281 460.564C518.53 446.158 504.382 427.979 485.688 410.743V410.829ZM696.633 419.404L698.348 468.495L717.085 475.355C722.658 465.751 732.52 463.479 738.822 455.376C744.653 452.589 744.653 459.92 747.397 462.236C750.955 484.531 725.96 494.606 712.754 503.739H718.328C732.476 489.075 740.622 521.961 755.2 507.04C757.987 488.304 784.355 490.576 790.1 472.139C785.556 476.685 783.24 471.625 779.21 470.424C780.496 464.079 789.329 460.049 793.359 455.762C763.346 437.325 731.619 425.149 696.461 419.575L696.633 419.404ZM667.307 420.904C629.147 426.477 593.132 440.369 565.864 469.996C574.953 471.711 584.086 475.57 590.903 481.872C593.175 486.417 586.873 486.932 586.359 489.719C592.19 498.294 592.704 488.004 598.792 486.417C604.366 491.99 609.168 496.021 617.014 491.99C621.045 498.85 627.39 492.505 632.449 493.019C634.164 487.446 642.053 482.901 638.794 476.555C641.582 471.497 642.825 463.393 649.685 463.393C645.654 484.659 665.635 463.393 671.423 473.511C665.334 457.562 669.922 436.339 667.392 420.904H667.307ZM665.806 511.198L667.092 512.227C668.379 519.087 673.437 529.377 667.092 533.966C658.946 544.856 639.224 542.541 636.736 557.247C615.47 563.592 623.574 589.832 616.757 606.339C603.037 609.639 608.182 593.175 601.837 587.602L598.535 591.632C577.098 575.682 581.6 609.854 568.523 613.069C582.929 616.371 595.32 608.011 610.026 607.496C611.055 609.211 614.57 610.283 613.327 613.069H615.599C618.9 609.769 619.158 605.781 618.9 601.194C620.187 596.649 625.76 593.905 629.791 596.649C628.504 601.194 631.506 604.795 635.364 606.767L627.519 617.658C623.488 622.202 628.548 634.593 617.915 634.122C615.642 634.636 613.884 632.835 614.613 630.562H612.34L617.915 640.681C624.26 640.166 622.973 628.805 631.077 627.518C638.366 625.803 639.224 617.143 638.366 610.368C647.97 602.223 659.632 607.067 670.222 605.824C673.009 608.61 679.312 609.383 678.068 614.399C682.099 622.545 675.281 631.549 670.222 638.409C672.495 642.954 666.92 646.555 666.92 651.572C658.345 660.661 648.698 656.63 636.908 659.417C651.314 669.536 667.007 675.881 686 674.338C704.222 675.625 695.604 652.601 708.723 645.183C716.57 644.154 723.13 646.212 732.005 643.897C735.563 637.037 736.035 628.977 737.578 621.173C729.732 617.615 732.52 609.769 732.005 603.465C727.46 597.892 727.974 588.03 718.842 587.001C717.127 581.943 722.401 579.713 722.143 575.126C735.863 570.066 714.855 561.962 723.43 553.688C707.995 550.901 704.436 526.377 685.271 534.222C680.727 527.877 668.807 525.133 668.807 515.486C670.094 508.626 685.529 511.456 683.727 512.185C682.698 510.898 680.941 509.913 681.455 508.154C675.624 507.64 668.807 508.154 664.991 511.156L665.806 511.198ZM471.753 569.938C455.033 575.511 471.753 591.204 470.724 601.793C469.009 610.368 460.349 603.509 455.289 607.368C457.562 621.516 445.685 624.303 435.825 626.832C432.523 636.436 443.113 640.982 438.096 650.113C450.231 662.548 459.835 677.425 457.562 694.618C466.137 707.051 463.908 725.488 466.137 741.438C469.889 745.354 472.792 750.004 474.666 755.094C476.54 760.185 477.344 765.606 477.027 771.021C477.541 776.852 471.196 778.868 467.423 781.139C462.879 786.714 470.724 783.926 470.724 788.429L531.693 725.188C509.188 699.122 493.851 667.65 487.188 633.864L479.343 629.32C478.056 637.895 478.314 650.757 470.768 653.33C466.737 649.77 458.634 647.755 458.634 640.166C460.906 635.108 464.98 638.451 468.753 637.895C468.238 633.864 469.267 629.748 469.782 626.018C471.067 620.958 462.492 617.443 468.753 612.856C474.326 612.341 476.599 618.687 480.628 621.431L491.519 615.857C488.217 605.481 494.306 589.059 490.49 577.698C488.99 568.609 479.085 570.409 471.753 569.851V569.938ZM911.439 601.75L923.568 615.9C923.055 631.849 944.832 637.337 946.295 653.072C950.837 638.152 950.324 621.216 954.866 606.253C940.932 604.752 923.012 609.254 911.354 601.708L911.439 601.75ZM1074.1 602.523L1076.38 607.067C1072.31 699.863 1035.04 788.11 971.374 855.738C989.662 872.426 1007.21 889.893 1023.99 908.095C1084.01 838.507 1125.94 760.346 1140.34 671.551C1145.41 648.828 1143.9 624.26 1150.46 602.523C1128.17 608.868 1101.89 604.795 1077.36 606.081L1074.1 602.523ZM980.51 604.023C983.298 613.113 977.721 621.731 978.234 631.335C968.629 647.284 990.671 651.314 984.581 666.234C980.552 669.536 976.438 669.021 971.417 667.263C960.015 711.768 937.759 752.757 905.905 788.171H902.603C910.755 793.231 916.751 804.635 925.886 806.907V800.562C927.597 799.276 928.675 796.018 931.463 797.26C949.169 802.835 950.452 827.359 951.958 838.763C998.258 790.187 1027.07 732.262 1041.57 669.536C1046.62 648.098 1043.83 623.231 1052.45 605.009C1028.66 606.296 1002.89 607.581 980.595 603.98L980.51 604.023ZM414.129 604.795C419.189 621.259 424.506 638.966 420.475 657.103C420.475 648.956 438.183 640.639 424.033 633.521C429.608 625.375 425.32 607.967 435.91 607.196C427.55 608.911 421.247 608.911 414.173 604.624L414.129 604.795ZM223.122 607.067C228.18 722.916 270.927 824.357 346.302 910.404C363.022 892.698 381.716 872.674 399.895 858.099C390.805 852.27 384.974 841.637 375.885 834.091C364.481 831.818 356.892 820.927 354.148 811.366C354.662 812.653 352.861 813.639 351.875 814.668C341.5 819.727 338.155 806.822 331.381 802.792C325.036 799.49 330.094 785.084 318.947 790.358C312.601 779.982 300.725 780.754 296.224 768.62L291.55 776.038C283.403 775.523 277.401 765.662 272.813 760.602C256.093 765.662 262.695 742.38 253.349 734.792C249.789 720.129 254.378 706.708 261.924 695.347C266.982 690.802 276.586 694.318 278.388 697.619C286.963 700.92 281.688 690.759 286.234 689.044C298.367 678.669 304.456 693.075 311.273 700.92C301.154 671.765 294.809 637.68 296.352 606.296C272.77 609.083 246.531 608.31 223.035 606.81L223.122 607.067ZM318.99 606.296L321.263 609.597C323.534 642.182 332.667 674.123 335.411 705.466C339.442 702.679 336.698 695.347 342.271 695.347C343.986 679.912 346.302 662.205 356.42 648.528C370.826 648.013 371.341 628.547 386.776 629.791C390.334 632.578 395.351 636.137 396.894 640.681C389.047 631.591 388.747 617.1 392.349 606.038C368.009 609.283 343.352 609.369 318.99 606.296ZM516.815 635.451L520.846 642.311C526.419 665.034 539.839 684.07 551.201 704.479L572.639 682.741C572.124 679.954 573.668 676.91 571.61 674.896C567.579 669.321 570.323 659.461 564.75 656.159C563.035 661.219 568.779 664.005 566.035 668.036C559.175 665.249 551.887 662.205 548.329 653.886C549.614 643.511 541.983 651.1 536.452 646.04C536.194 634.893 522.046 642.182 517.244 635.407L516.815 635.451ZM593.219 654.187C591.932 660.533 586.873 665.591 583.1 670.651C589.446 667.864 593.219 658.217 600.25 658.775L593.219 654.187ZM787.271 670.35C777.152 684.5 796.875 683.514 798.161 695.389C800.434 695.389 803.22 696.418 804.506 694.36C803.22 689.302 803.478 683.985 798.933 680.212C791.344 680.469 791.344 670.35 787.356 670.35H787.271ZM908.18 675.881C895.016 666.021 897.805 684.971 886.437 683.727C882.408 682.698 881.382 677.896 880.868 673.609C879.842 683.985 871.776 691.831 865.942 699.935C844.509 694.104 850.512 723.515 829.502 717.085C832.289 725.23 841.379 715.798 845.966 718.37C849.525 716.655 848.753 712.797 850.512 710.525C852.784 701.95 863.162 698.648 871.947 701.949C876.498 709.239 877.781 718.413 877.524 726.988C872.46 730.547 872.46 736.592 872.982 742.423C866.635 752.8 869.415 775.008 850.254 772.779C830.275 765.491 808.494 760.131 786.499 759.617V764.161C801.162 769.735 817.369 769.735 829.246 780.625C841.893 779.339 857.842 782.34 867.405 775.052C868.688 765.962 872.46 757.902 878.294 751.042C886.437 752.071 884.641 762.918 888.413 768.192C912.423 737.836 933.43 708.724 941.582 671.294C929.701 670.78 921.088 677.64 908.693 675.838L908.18 675.881ZM615.985 674.852L572.252 723.945C597.291 742.938 626.404 758.116 658.775 763.175C658.26 754.6 658.26 746.025 662.804 739.165C667.35 736.378 674.21 740.452 678.239 735.863C677.725 731.834 674.938 731.834 672.666 728.017C669.879 721.672 672.666 715.884 673.695 711.554C675.41 708.252 670.136 701.178 675.967 698.906C661.819 705.766 649.171 696.119 636.736 692.046C629.876 686.729 617.743 685.485 615.985 674.896V674.852ZM756.915 723.945C762.489 716.655 774.065 718.114 776.38 709.795C766.262 708.08 754.943 715.37 756.915 723.945ZM782.726 734.834C777.666 737.621 773.636 737.622 770.849 743.409C765.018 751.256 757.687 742.895 752.113 740.109C753.828 742.38 757.944 747.955 753.142 750.999C747.311 757.344 741.737 748.211 735.992 746.454C732.691 766.433 725.616 740.88 714.554 745.425C710.01 734.02 702.121 747.697 695.089 746.454C689.515 750.998 689.259 764.161 678.626 762.918C676.353 769.264 667.735 766.948 666.749 771.493C671.809 777.324 678.626 774.794 683.899 773.765C692.474 765.919 703.365 770.979 713.911 769.735C712.882 786.199 732.134 773.765 737.921 783.883C744.781 783.369 744.781 776.595 747.525 771.45C761.675 769.177 776.123 760.559 783.97 749.713C785.984 745.853 788.514 737.064 782.683 734.792L782.726 734.834ZM550.472 742.681C536.066 760.388 518.616 777.324 501.38 791.772H504.681C544.641 826.415 595.233 850.512 642.567 858.056C625.417 855.789 618.557 838.85 610.712 826.202C606.166 815.826 622.116 813.553 619.287 802.62C625.118 793.016 634.207 787.7 645.611 786.156C640.038 787.185 634.722 787.871 629.147 789.458C600.293 779.854 571.267 767.163 550.472 742.638V742.681ZM885.453 805.922V806.951C851.283 830.961 901.919 831.99 902.603 852.998C897.548 863.12 879.32 872.982 890.731 884.855C894.289 888.883 889.011 892.142 887.429 895.743L934.243 856.303C928.418 860.331 921.088 857.586 917.786 852.27C918.812 830.832 893.99 822.429 885.41 805.965L885.453 805.922ZM506.739 831.69C506.739 839.536 517.116 839.836 513.085 849.396C497.65 858.997 478.913 852.184 463.993 863.547C450.273 870.835 438.954 854.971 431.408 855.695C497.693 912.851 575.597 951.051 665.162 955.388L670.737 958.689C667.178 936.946 668.464 911.396 669.708 888.627C608.739 892.185 553.559 866.892 506.739 831.69ZM953.241 872.161C942.925 886.197 929.941 898.053 915.04 907.06C867.747 923.525 863.59 976.096 816.854 993.588C798.632 1000.88 788.257 977.122 771.835 973.607C747.311 977.636 721.758 984.496 696.719 980.467V1056.87L700.02 1054.59C817.412 1049.54 923.14 1003.23 1005.63 925.843C986.899 908.138 966.918 889.91 953.326 872.247L953.241 872.161ZM416.445 876.711L365.853 929.017C452.117 1006.44 555.36 1048.21 671.466 1055.5L668.164 1049.92C669.193 1027.2 666.449 1003.1 670.437 981.322L669.408 982.605C572.767 979.825 484.488 943.892 416.445 876.626V876.711ZM693.203 893.169L697.748 901.021L696.719 958.689C713.44 952.343 736.678 952.856 752.113 950.11C743.024 941.018 729.389 941.967 725.788 928.375C719.442 919.283 728.575 909.634 728.061 902.047C717.17 896.727 701.092 903.074 693.203 893.169Z" fill="#D59C34"/>
</g>
<path d="M1113.3 361.865C1205.64 514.157 1186.4 746.153 1075.13 883.229C951.958 1045.89 748.854 1116.46 547.771 1061.07C365.38 1013.26 216.605 839.193 199.926 650.971C177.203 451.388 269.984 269.47 438.74 169.785C568.779 89.8233 769.392 80.7337 904.707 156.623C986.942 196.582 1069.65 278.559 1112.9 361.78L1113.3 361.865ZM695.389 127.082C697.104 145.304 697.104 170.814 695.389 191.609C695.904 188.307 698.948 188.307 700.964 187.063C707.309 189.336 707.309 197.182 705.508 202.498H704.222C736.807 200.227 768.234 208.329 798.333 217.419C829.717 221.45 857.072 259.18 887.942 239.157C896.513 248.761 911.525 239.672 916.024 254.592C927.905 256.864 934.243 268.741 942.352 276.33C941.317 287.219 951.436 292.279 954.994 300.34V299.053C965.37 280.317 981.793 264.153 1000.02 254.549C936.056 193.49 855.558 152.578 768.535 136.9C744.953 132.098 718.713 133.599 695.432 127.038L695.389 127.082ZM365.723 255.835L419.318 307.2C485.875 241.772 574.7 203.914 667.993 201.213C664.434 178.488 665.72 152.635 666.964 129.354C551.629 135.914 451.217 179.432 365.723 255.835ZM751.341 166.27L718.756 180.933C715.198 182.648 703.836 176.903 705.594 186.507C711.94 190.537 718.242 195.082 726.088 196.111C746.583 187.021 771.107 201.942 788.257 182.947C783.197 169.014 764.975 168.541 751.385 166.227L751.341 166.27ZM694.275 226.252C697.834 248.975 696.547 276.33 695.304 298.625C752.971 299.654 807.637 317.361 852.655 350.932C849.979 348.935 847.806 346.341 846.31 343.356C844.814 340.372 844.036 337.078 844.037 333.739H845.752C846.781 325.593 834.347 321.862 838.463 313.76C849.354 314.789 857.457 329.709 863.505 337.77C894.888 337.255 876.669 374.642 900.371 385.79C905.948 388.576 898.66 399.938 907.231 398.952C914.527 404.783 923.696 411.385 922.157 420.69C924.945 437.154 938.109 415.631 945.44 426.264C951.778 431.323 940.889 434.41 942.138 440.412C946.167 442.127 949.982 436.382 953.027 441.441C954.31 447.015 950.238 449.287 947.45 452.332C944.661 461.936 956.029 456.361 959.331 460.907C964.386 471.796 968.415 488.217 960.357 500.352C971.759 512.785 958.638 525.391 956.328 537.224C948.177 545.07 946.723 563.034 931.292 558.962C927.725 565.307 933.559 572.682 930 577.698L957.312 578.984C941.881 557.247 961.854 536.237 968.201 516.816C971.503 515.529 975.489 508.669 978.32 515.529L975.018 541.855C981.878 552.23 979.047 566.894 981.365 579.027L1051.43 577.74C1046.36 531.435 1036.76 486.932 1017.26 446.714C1012.19 448.429 1006.36 452.289 1000.79 448.987C992.938 438.612 986.642 425.706 975.745 417.131C966.661 417.131 960.314 409.842 953.027 405.254C937.074 405.769 942.908 382.531 927.469 385.79C919.326 381.759 913.321 377.643 911.011 368.082C910.49 357.191 909.72 343.558 899.13 335.497C893.297 332.196 887.728 336.526 883.7 340.041C875.12 345.616 871.562 336.012 871.819 329.152C862.213 321.862 872.332 313.717 867.277 305.142C853.556 294.251 859.989 273.757 841.465 264.668C811.366 250.262 779.725 241.086 746.282 234.312C729.346 231.31 710.61 230.754 694.189 226.165L694.275 226.252ZM902.732 226.252C899.173 227.281 900.465 233.112 901.705 235.341C913.578 236.37 913.577 256.779 927.511 247.989L924.21 233.841C920.651 224.965 908.565 229.553 902.732 226.252ZM434.753 325.85C452.975 338.498 470.681 358.435 485.602 374.942C533.622 328.123 598.449 299.567 667.993 298.538C666.706 275.815 666.706 251.248 667.993 228.481C579.97 235.341 500.78 267.154 434.753 325.85ZM1017.43 271.228L969.621 322.592L961.769 323.621C968.115 323.621 966.319 330.91 970.348 333.739C990.329 347.888 999.499 367.911 1016.39 382.831C1022.74 398.266 1039.12 408.385 1039.12 427.335C1062.7 473.383 1073.76 527.234 1076.29 580.141C1100.57 577.551 1124.98 576.448 1149.39 576.841L1147.12 574.568C1142.83 456.448 1094.51 355.906 1017.34 271.228H1017.43ZM351.575 278.688L349.302 271.828C271.699 356.292 227.88 463.05 222.049 579.67L296.224 580.699C293.437 557.118 299.782 534.394 302.569 511.113C318.519 442.513 348.102 377.558 400.752 326.451L351.575 278.688ZM669.579 322.635L667.307 324.35C604.581 327.908 552.187 355.734 503.609 393.378C522.346 405.512 537.266 424.762 554.974 441.184C585.33 412.029 625.804 394.879 668.292 393.378C666.792 372.626 665.72 344.801 669.579 322.548V322.635ZM695.389 323.664C698.948 344.93 698.177 369.969 696.676 392.264C738.908 395.565 783.97 412.757 814.325 440.284C830.275 423.82 847.982 402.124 865.686 392.264C815.869 352.819 759.96 328.251 695.476 323.664H695.389ZM416.359 340.814V345.358C358.692 411.385 326.321 490.833 320.49 579.885C344.072 580.399 370.054 578.856 392.349 580.914L390.076 577.612C394.622 507.04 420.089 442.985 467.681 392.177C448.473 376.742 430.808 359.036 416.316 340.814H416.359ZM880.826 408.556C859.39 433.081 832.504 459.149 812.224 482.729C813.51 486.031 817.283 489.589 817.797 488.304C823.371 481.444 819.084 464.294 834.261 467.809C849.182 472.869 862.341 471.368 878.764 473.383C887.857 478.442 889.14 489.333 897.505 493.877C901.064 497.908 896.214 501.724 894.204 504.768C896 506.378 897.531 508.258 898.745 510.341C903.287 506.311 909.634 500.737 918.214 503.053C926.784 503.567 929.102 515.7 936.946 517.201C940.504 521.746 934.671 526.29 931.378 528.092C933.088 536.667 923.226 539.496 926.827 547.556C931.378 548.585 935.92 546.271 937.716 543.012C954.866 530.364 941.274 513.857 938.751 498.507C931.891 484.359 917.478 481.787 906.162 471.197C906.675 466.651 909.463 461.593 913.022 459.32C912.252 439.083 891.757 425.448 880.868 408.728L880.826 408.556ZM485.688 410.829C470.253 429.822 455.333 450.788 444.185 472.997C426.477 505.582 421.461 543.57 414.173 580.785L444.185 579.756C439.125 573.925 440.154 565.607 440.154 558.018C447.014 543.612 449.758 517.544 471.539 518.788C481.915 516.515 471.024 508.412 479.386 504.125C494.821 501.852 498.85 487.403 511.971 480.543C524.404 479.257 526.891 461.806 539.281 460.564C518.53 446.158 504.382 427.979 485.688 410.743V410.829ZM696.633 419.404L698.348 468.495L717.085 475.355C722.658 465.751 732.52 463.479 738.822 455.376C744.653 452.589 744.653 459.92 747.397 462.236C750.955 484.531 725.96 494.606 712.754 503.739H718.328C732.476 489.075 740.622 521.961 755.2 507.04C757.987 488.304 784.355 490.576 790.1 472.139C785.556 476.685 783.24 471.625 779.21 470.424C780.496 464.079 789.329 460.049 793.359 455.762C763.346 437.325 731.619 425.149 696.461 419.575L696.633 419.404ZM667.307 420.904C629.147 426.477 593.132 440.369 565.864 469.996C574.953 471.711 584.086 475.57 590.903 481.872C593.175 486.417 586.873 486.932 586.359 489.719C592.19 498.294 592.704 488.004 598.792 486.417C604.366 491.99 609.168 496.021 617.014 491.99C621.045 498.85 627.39 492.505 632.449 493.019C634.164 487.446 642.053 482.901 638.794 476.555C641.582 471.497 642.825 463.393 649.685 463.393C645.654 484.659 665.635 463.393 671.423 473.511C665.334 457.562 669.922 436.339 667.392 420.904H667.307ZM665.806 511.198L667.092 512.227C668.379 519.087 673.437 529.377 667.092 533.966C658.946 544.856 639.224 542.541 636.736 557.247C615.47 563.592 623.574 589.832 616.757 606.339C603.037 609.639 608.182 593.175 601.837 587.602L598.535 591.632C577.098 575.682 581.6 609.854 568.523 613.069C582.929 616.371 595.32 608.011 610.026 607.496C611.055 609.211 614.57 610.283 613.327 613.069H615.599C618.9 609.769 619.158 605.781 618.9 601.194C620.187 596.649 625.76 593.905 629.791 596.649C628.504 601.194 631.506 604.795 635.364 606.767L627.519 617.658C623.488 622.202 628.548 634.593 617.915 634.122C615.642 634.636 613.884 632.835 614.613 630.562H612.34L617.915 640.681C624.26 640.166 622.973 628.805 631.077 627.518C638.366 625.803 639.224 617.143 638.366 610.368C647.97 602.223 659.632 607.067 670.222 605.824C673.009 608.61 679.312 609.383 678.068 614.399C682.099 622.545 675.281 631.549 670.222 638.409C672.495 642.954 666.92 646.555 666.92 651.572C658.345 660.661 648.698 656.63 636.908 659.417C651.314 669.536 667.007 675.881 686 674.338C704.222 675.625 695.604 652.601 708.723 645.183C716.57 644.154 723.13 646.212 732.005 643.897C735.563 637.037 736.035 628.977 737.578 621.173C729.732 617.615 732.52 609.769 732.005 603.465C727.46 597.892 727.974 588.03 718.842 587.001C717.127 581.943 722.401 579.713 722.143 575.126C735.863 570.066 714.855 561.962 723.43 553.688C707.995 550.901 704.436 526.377 685.271 534.222C680.727 527.877 668.807 525.133 668.807 515.486C670.094 508.626 685.529 511.456 683.727 512.185C682.698 510.898 680.941 509.913 681.455 508.154C675.624 507.64 668.807 508.154 664.991 511.156L665.806 511.198ZM471.753 569.938C455.033 575.511 471.753 591.204 470.724 601.793C469.009 610.368 460.349 603.509 455.289 607.368C457.562 621.516 445.685 624.303 435.825 626.832C432.523 636.436 443.113 640.982 438.096 650.113C450.231 662.548 459.835 677.425 457.562 694.618C466.137 707.051 463.908 725.488 466.137 741.438C469.889 745.354 472.792 750.004 474.666 755.094C476.54 760.185 477.344 765.606 477.027 771.021C477.541 776.852 471.196 778.868 467.423 781.139C462.879 786.714 470.724 783.926 470.724 788.429L531.693 725.188C509.188 699.122 493.851 667.65 487.188 633.864L479.343 629.32C478.056 637.895 478.314 650.757 470.768 653.33C466.737 649.77 458.634 647.755 458.634 640.166C460.906 635.108 464.98 638.451 468.753 637.895C468.238 633.864 469.267 629.748 469.782 626.018C471.067 620.958 462.492 617.443 468.753 612.856C474.326 612.341 476.599 618.687 480.628 621.431L491.519 615.857C488.217 605.481 494.306 589.059 490.49 577.698C488.99 568.609 479.085 570.409 471.753 569.851V569.938ZM911.439 601.75L923.568 615.9C923.055 631.849 944.832 637.337 946.295 653.072C950.837 638.152 950.324 621.216 954.866 606.253C940.932 604.752 923.012 609.254 911.354 601.708L911.439 601.75ZM1074.1 602.523L1076.38 607.067C1072.31 699.863 1035.04 788.11 971.374 855.738C989.662 872.426 1007.21 889.893 1023.99 908.095C1084.01 838.507 1125.94 760.346 1140.34 671.551C1145.41 648.828 1143.9 624.26 1150.46 602.523C1128.17 608.868 1101.89 604.795 1077.36 606.081L1074.1 602.523ZM980.51 604.023C983.298 613.113 977.721 621.731 978.234 631.335C968.629 647.284 990.671 651.314 984.581 666.234C980.552 669.536 976.438 669.021 971.417 667.263C960.015 711.768 937.759 752.757 905.905 788.171H902.603C910.755 793.231 916.751 804.635 925.886 806.907V800.562C927.597 799.276 928.675 796.018 931.463 797.26C949.169 802.835 950.452 827.359 951.958 838.763C998.258 790.187 1027.07 732.262 1041.57 669.536C1046.62 648.098 1043.83 623.231 1052.45 605.009C1028.66 606.296 1002.89 607.581 980.595 603.98L980.51 604.023ZM414.129 604.795C419.189 621.259 424.506 638.966 420.475 657.103C420.475 648.956 438.183 640.639 424.033 633.521C429.608 625.375 425.32 607.967 435.91 607.196C427.55 608.911 421.247 608.911 414.173 604.624L414.129 604.795ZM223.122 607.067C228.18 722.916 270.927 824.357 346.302 910.404C363.022 892.698 381.716 872.674 399.895 858.099C390.805 852.27 384.974 841.637 375.885 834.091C364.481 831.818 356.892 820.927 354.148 811.366C354.662 812.653 352.861 813.639 351.875 814.668C341.5 819.727 338.155 806.822 331.381 802.792C325.036 799.49 330.094 785.084 318.947 790.358C312.601 779.982 300.725 780.754 296.224 768.62L291.55 776.038C283.403 775.523 277.401 765.662 272.813 760.602C256.093 765.662 262.695 742.38 253.349 734.792C249.789 720.129 254.378 706.708 261.924 695.347C266.982 690.802 276.586 694.318 278.388 697.619C286.963 700.92 281.688 690.759 286.234 689.044C298.367 678.669 304.456 693.075 311.273 700.92C301.154 671.765 294.809 637.68 296.352 606.296C272.77 609.083 246.531 608.31 223.035 606.81L223.122 607.067ZM318.99 606.296L321.263 609.597C323.534 642.182 332.667 674.123 335.411 705.466C339.442 702.679 336.698 695.347 342.271 695.347C343.986 679.912 346.302 662.205 356.42 648.528C370.826 648.013 371.341 628.547 386.776 629.791C390.334 632.578 395.351 636.137 396.894 640.681C389.047 631.591 388.747 617.1 392.349 606.038C368.009 609.283 343.352 609.369 318.99 606.296ZM516.815 635.451L520.846 642.311C526.419 665.034 539.839 684.07 551.201 704.479L572.639 682.741C572.124 679.954 573.668 676.91 571.61 674.896C567.579 669.321 570.323 659.461 564.75 656.159C563.035 661.219 568.779 664.005 566.035 668.036C559.175 665.249 551.887 662.205 548.329 653.886C549.614 643.511 541.983 651.1 536.452 646.04C536.194 634.893 522.046 642.182 517.244 635.407L516.815 635.451ZM593.219 654.187C591.932 660.533 586.873 665.591 583.1 670.651C589.446 667.864 593.219 658.217 600.25 658.775L593.219 654.187ZM787.271 670.35C777.152 684.5 796.875 683.514 798.161 695.389C800.434 695.389 803.22 696.418 804.506 694.36C803.22 689.302 803.478 683.985 798.933 680.212C791.344 680.469 791.344 670.35 787.356 670.35H787.271ZM908.18 675.881C895.016 666.021 897.805 684.971 886.437 683.727C882.408 682.698 881.382 677.896 880.868 673.609C879.842 683.985 871.776 691.831 865.942 699.935C844.509 694.104 850.512 723.515 829.502 717.085C832.289 725.23 841.379 715.798 845.966 718.37C849.525 716.655 848.753 712.797 850.512 710.525C852.784 701.95 863.162 698.648 871.947 701.949C876.498 709.239 877.781 718.413 877.524 726.988C872.46 730.547 872.46 736.592 872.982 742.423C866.635 752.8 869.415 775.008 850.254 772.779C830.275 765.491 808.494 760.131 786.499 759.617V764.161C801.162 769.735 817.369 769.735 829.246 780.625C841.893 779.339 857.842 782.34 867.405 775.052C868.688 765.962 872.46 757.902 878.294 751.042C886.437 752.071 884.641 762.918 888.413 768.192C912.423 737.836 933.43 708.724 941.582 671.294C929.701 670.78 921.088 677.64 908.693 675.838L908.18 675.881ZM615.985 674.852L572.252 723.945C597.291 742.938 626.404 758.116 658.775 763.175C658.26 754.6 658.26 746.025 662.804 739.165C667.35 736.378 674.21 740.452 678.239 735.863C677.725 731.834 674.938 731.834 672.666 728.017C669.879 721.672 672.666 715.884 673.695 711.554C675.41 708.252 670.136 701.178 675.967 698.906C661.819 705.766 649.171 696.119 636.736 692.046C629.876 686.729 617.743 685.485 615.985 674.896V674.852ZM756.915 723.945C762.489 716.655 774.065 718.114 776.38 709.795C766.262 708.08 754.943 715.37 756.915 723.945ZM782.726 734.834C777.666 737.621 773.636 737.622 770.849 743.409C765.018 751.256 757.687 742.895 752.113 740.109C753.828 742.38 757.944 747.955 753.142 750.999C747.311 757.344 741.737 748.211 735.992 746.454C732.691 766.433 725.616 740.88 714.554 745.425C710.01 734.02 702.121 747.697 695.089 746.454C689.515 750.998 689.259 764.161 678.626 762.918C676.353 769.264 667.735 766.948 666.749 771.493C671.809 777.324 678.626 774.794 683.899 773.765C692.474 765.919 703.365 770.979 713.911 769.735C712.882 786.199 732.134 773.765 737.921 783.883C744.781 783.369 744.781 776.595 747.525 771.45C761.675 769.177 776.123 760.559 783.97 749.713C785.984 745.853 788.514 737.064 782.683 734.792L782.726 734.834ZM550.472 742.681C536.066 760.388 518.616 777.324 501.38 791.772H504.681C544.641 826.415 595.233 850.512 642.567 858.056C625.417 855.789 618.557 838.85 610.712 826.202C606.166 815.826 622.116 813.553 619.287 802.62C625.118 793.016 634.207 787.7 645.611 786.156C640.038 787.185 634.722 787.871 629.147 789.458C600.293 779.854 571.267 767.163 550.472 742.638V742.681ZM885.453 805.922V806.951C851.283 830.961 901.919 831.99 902.603 852.998C897.548 863.12 879.32 872.982 890.731 884.855C894.289 888.883 889.011 892.142 887.429 895.743L934.243 856.303C928.418 860.331 921.088 857.586 917.786 852.27C918.812 830.832 893.99 822.429 885.41 805.965L885.453 805.922ZM506.739 831.69C506.739 839.536 517.116 839.836 513.085 849.396C497.65 858.997 478.913 852.184 463.993 863.547C450.273 870.835 438.954 854.971 431.408 855.695C497.693 912.851 575.597 951.051 665.162 955.388L670.737 958.689C667.178 936.946 668.464 911.396 669.708 888.627C608.739 892.185 553.559 866.892 506.739 831.69ZM953.241 872.161C942.925 886.197 929.941 898.053 915.04 907.06C867.747 923.525 863.59 976.096 816.854 993.588C798.632 1000.88 788.257 977.122 771.835 973.607C747.311 977.636 721.758 984.496 696.719 980.467V1056.87L700.02 1054.59C817.412 1049.54 923.14 1003.23 1005.63 925.843C986.899 908.138 966.918 889.91 953.326 872.247L953.241 872.161ZM416.445 876.711L365.853 929.017C452.117 1006.44 555.36 1048.21 671.466 1055.5L668.164 1049.92C669.193 1027.2 666.449 1003.1 670.437 981.322L669.408 982.605C572.767 979.825 484.488 943.892 416.445 876.626V876.711ZM693.203 893.169L697.748 901.021L696.719 958.689C713.44 952.343 736.678 952.856 752.113 950.11C743.024 941.018 729.389 941.967 725.788 928.375C719.442 919.283 728.575 909.634 728.061 902.047C717.17 896.727 701.092 903.074 693.203 893.169Z" fill="white"/>
</g>
</g>
<defs>
<filter id="filter0_f_351_2" x="126.535" y="34.4626" width="1115.54" height="1115.25" filterUnits="userSpaceOnUse" color-interpolation-filters="sRGB">
<feFlood flood-opacity="0" result="BackgroundImageFix"/>
<feBlend mode="normal" in="SourceGraphic" in2="BackgroundImageFix" result="shape"/>
<feGaussianBlur stdDeviation="35" result="effect1_foregroundBlur_351_2"/>
</filter>
<clipPath id="clip0_351_2">
<rect width="1372" height="1372" fill="white"/>
</clipPath>
</defs>
</svg>
