<?xml version="1.0" encoding="UTF-8" standalone="no"?>
<svg
   xmlns:dc="http://purl.org/dc/elements/1.1/"
   xmlns:cc="http://creativecommons.org/ns#"
   xmlns:rdf="http://www.w3.org/1999/02/22-rdf-syntax-ns#"
   xmlns:svg="http://www.w3.org/2000/svg"
   xmlns="http://www.w3.org/2000/svg"
   viewBox="0 0 1440 1440"
   height="1440"
   width="1440"
   xml:space="preserve"
   id="svg2"
   version="1.1"><metadata
     id="metadata8"><rdf:RDF><cc:Work
         rdf:about=""><dc:format>image/svg+xml</dc:format><dc:type
           rdf:resource="http://purl.org/dc/dcmitype/StillImage" /></cc:Work></rdf:RDF></metadata><defs
     id="defs6"><clipPath
       id="clipPath18"
       clipPathUnits="userSpaceOnUse"><path
         id="path16"
         d="M 0,1080 H 1080 V 0 H 0 Z" /></clipPath><radialGradient
       id="radialGradient60"
       spreadMethod="pad"
       gradientTransform="matrix(116.99446,0,0,-116.99446,456.12451,732.18604)"
       gradientUnits="userSpaceOnUse"
       r="1"
       cy="0"
       cx="0"
       fy="0.119464"
       fx="0.16084599"><stop
         id="stop54"
         offset="0"
         style="stop-opacity:1;stop-color:#fddd10" /><stop
         id="stop56"
         offset="0.775341"
         style="stop-opacity:1;stop-color:#f68712" /><stop
         id="stop58"
         offset="1"
         style="stop-opacity:1;stop-color:#f68712" /></radialGradient><radialGradient
       id="radialGradient82"
       spreadMethod="pad"
       gradientTransform="matrix(113.11256,0,0,-113.11256,526.37402,668.72412)"
       gradientUnits="userSpaceOnUse"
       r="1"
       cy="0"
       cx="0"
       fy="-0.28030199"
       fx="-0.35933501"><stop
         id="stop76"
         offset="0"
         style="stop-opacity:1;stop-color:#fddd10" /><stop
         id="stop78"
         offset="0.775341"
         style="stop-opacity:1;stop-color:#f68712" /><stop
         id="stop80"
         offset="1"
         style="stop-opacity:1;stop-color:#f68712" /></radialGradient><clipPath
       id="clipPath92"
       clipPathUnits="userSpaceOnUse"><path
         id="path90"
         d="M 0,1080 H 1080 V 0 H 0 Z" /></clipPath></defs><g
     transform="matrix(1.3333333,0,0,-1.3333333,0,1440)"
     id="g10"><g
       id="g12"><g
         clip-path="url(#clipPath18)"
         id="g14"><g
           transform="translate(201.5225,915.7168)"
           id="g20"><path
             id="path22"
             style="fill:#231f20;fill-opacity:1;fill-rule:evenodd;stroke:none"
             d="m 0,0 v -488.221 c 0,0 1.998,-81.453 74.567,-149.133 L 291.166,-845.07 c 0,0 5.428,-7.042 14.422,3.444 l 188.86,182.97 c 0,0 61.834,45.063 78.108,118.066 16.581,74.375 0,545.031 0,545.031 L 0,4.441 Z" /></g><g
           transform="translate(239.2866,877.1084)"
           id="g24"><path
             id="path26"
             style="fill:#f7f7f7;fill-opacity:1;fill-rule:evenodd;stroke:none"
             d="m 0,0 v -440.303 c 0,0 -8.37,-67.224 75.091,-140.841 l 178.351,-181.392 c 0,0 7.989,-9.752 17.308,4.89 l 195.734,198.833 c 0,0 27.207,21.115 35.504,75.013 l 0,483.8 z" /></g><g
           transform="translate(428.1948,209.1816)"
           id="g28"><path
             id="path30"
             style="fill:#eb2f2a;fill-opacity:1;fill-rule:nonzero;stroke:none"
             d="M 0,0 69.901,-67.058 283.197,153.791 Z" /></g><g
           transform="translate(499.5098,489.2285)"
           id="g32"><path
             id="path34"
             style="fill:#eb2f2a;fill-opacity:1;fill-rule:nonzero;stroke:none"
             d="m 0,0 c 0,0 13.685,83.233 80.783,98.112 0,0 62.382,10.165 79.891,-29.295 l 2.73,-5.478 -380.386,-191.696 c 0,0 -41.071,60.899 -26.237,128.357 0,0 15.072,77.677 73.67,95.438 0,0 33.428,11.983 68.355,2.786 0,0 80.779,-16.101 90.546,-92.434 0,0 1.638,-8.509 10.648,-5.79" /></g></g></g><text
       id="text40"
       style="font-variant:normal;font-weight:bold;font-stretch:normal;font-size:68.70487976px;font-family:'Times New Roman';-inkscape-font-specification:TimesNewRomanPS-BoldMT;writing-mode:lr-tb;fill:#110f0d;fill-opacity:1;fill-rule:nonzero;stroke:none"
       transform="matrix(0.88853955,0.45880004,0.45880004,-0.88853955,325.756,302.1044)"><tspan
         id="tspan36"
         y="0"
         x="0 49.604919 99.209839 148.81476 175.54095 216.26234 265.86725 304.06717 321.24338 367.06955">CARITAS ET</tspan><tspan
         id="tspan38"
         y="98.041862"
         x="46.719315 96.324234 142.15039 191.75531 218.48151 259.20975 308.81467">VERITAS</tspan></text>
<g
       id="g42"><g
         id="g44"><g
           id="g50"><g
             id="g52"><path
               id="path62"
               style="fill:url(#radialGradient60);stroke:none"
               d="m 424.499,810.127 c -38.164,-32.855 -45.414,-71.908 -45.414,-71.908 v 0 c -17.01,-68.358 57.833,-151.792 57.833,-151.792 v 0 c 5.455,-6.493 7.993,7.102 7.993,7.102 v 0 c -6.22,33.735 6,65.697 6,65.697 v 0 C 452.054,669.947 468.748,696.974 489,716 v 0 c 16.5,15.5 24.5,26 24.5,26 v 0 c 34.558,39.401 11.5,76.5 11.5,76.5 v 0 c -12.5,21 -49.898,58.201 -49.898,58.201 v 0 c -9.759,-20.425 -50.603,-66.574 -50.603,-66.574" /></g></g></g></g><g
       id="g64"><g
         id="g66"><g
           id="g72"><g
             id="g74"><path
               id="path84"
               style="fill:url(#radialGradient82);stroke:none"
               d="m 539.875,787.75 c -0.906,-5.81 -4.418,-23.102 -4.418,-23.102 v 0 C 528,738.5 495.5,709 495.5,709 v 0 C 473,691.5 460.893,661.224 460.893,661.224 v 0 C 447,626 455.564,557.809 455.564,557.809 v 0 c 15.978,-14.199 28.406,-41.723 28.406,-41.723 v 0 c -4.439,23.972 71.019,97.648 71.019,97.648 v 0 c 43.503,43.494 31.064,92.327 31.064,92.327 v 0 c -7.106,63.911 -45.274,100.302 -45.274,100.302 v 0 c 0,0 0.721,-8.196 -0.904,-18.613" /></g></g></g></g><g
       id="g86"><g
         clip-path="url(#clipPath92)"
         id="g88"><g
           transform="translate(776.5391,398.6982)"
           id="g94"><path
             id="path96"
             style="fill:#231f20;fill-opacity:1;fill-rule:nonzero;stroke:none"
             d="m 0,0 -396.667,-216.781 -1.865,3.414 396.665,216.78 z" /></g><g
           transform="translate(780.96,501.041)"
           id="g98"><path
             id="path100"
             style="fill:#231f20;fill-opacity:1;fill-rule:nonzero;stroke:none"
             d="m 0,0 -471.343,-237.31 -2.777,5.517 471.34,237.31 z" /></g><g
           transform="translate(747.3242,590.356)"
           id="g102"><path
             id="path104"
             style="fill:#231f20;fill-opacity:1;fill-rule:nonzero;stroke:none"
             d="m 0,0 -483.658,-242.678 -1.743,3.477 L -1.745,3.476 Z" /></g></g></g></g></svg>